# xmcd CD database file
#
# Track frame offsets:
#	150
#	19145
#	38602
#	59825
#	79138
#	97499
#	123686
#	142430
#	163745
#	183043
#	205055
#	228067
#	254158
#
# Disc length: 3728 seconds
#
# Revision: 1
# Processed by: cddbd v1.4PL0 Copyright (c) Steve Scherf et al.
# Submitted via: CDex 1.50beta9
#
DISCID=c30e8e0d
DTITLE=Allen and Allen - Impressions
DYEAR=2003
DGENRE=Jazz
TTITLE0=Always There
TTITLE1=We're In This Love
TTITLE2=Critical Commission
TTITLE3=If
TTITLE4=Rise Again
TTITLE5=Impressions
TTITLE6=All I do
TTITLE7=I'm In Love
TTITLE8=Voice Angel
TTITLE9=Your Love Takes Me Higher
TTITLE10=No Greater Love
TTITLE11=America's Cry
TTITLE12=It Is Well/How Great Thou Art
EXTD=YEAR: 2003
EXTT0=
EXTT1=
EXTT2=
EXTT3=
EXTT4=
EXTT5=
EXTT6=
EXTT7=
EXTT8=
EXTT9=
EXTT10=
EXTT11=
EXTT12=
PLAYORDER=
